<?xml version="1.0" encoding="utf-8"?>
<!-- Generator: Adobe Illustrator 19.0.0, SVG Export Plug-In . SVG Version: 6.00 Build 0)  -->
<svg version="1.1" id="Capa_1" xmlns="http://www.w3.org/2000/svg" xmlns:xlink="http://www.w3.org/1999/xlink" x="0px" y="0px"
	 viewBox="0 0 800 600" style="enable-background:new 0 0 800 600;" xml:space="preserve">
<style type="text/css">
	.st0{fill:#754C28;}
	.st1{fill:#D36052;}
</style>
<g id="XMLID_4411_">
	<path id="XMLID_4422_" class="st0" d="M369.5,222.6c18.7,0,33.9-15.2,33.9-33.9c0-18.7-15.2-33.9-33.9-33.9s-33.9,15.2-33.9,33.9
		C335.6,207.4,350.8,222.6,369.5,222.6z"/>
	<path id="XMLID_4421_" class="st0" d="M328.9,281.7l11.7,7v-33.7c0-10.1-0.7-20,5.9-21.7c-5.2,0.2-10.1,1.9-11.4,5.4l-16.8,43.8
		l-2.4,6.4C319.2,282.7,325,279.6,328.9,281.7z"/>
	<path id="XMLID_4420_" class="st0" d="M419.1,278.6c-3.9,3.9-2.5,12.4,3.9,17.9c5.3,4.6,14.7,7,18,3.7l44.6-52.9
		c2.4-2.7,3.1-5.7,2.7-8.4c-0.5-3.5-2.9-6.5-5.9-8.1c-3.7-1.9-8.4-1.7-12,2.5l-12.3,10.8L424,274.3L419.1,278.6z"/>
	<path id="XMLID_4419_" class="st0" d="M386.6,252.6c-5.2,6.8-5.8,15-1.4,18.3l10.2,7.7l8.7,6.6l8.2,6.2l6.8,5.1
		c-5.6-5.5-7.4-12.7-4.7-16.9c0.2-0.3,0.4-0.7,0.7-1l13.9-12.9l-4.2-3.2l-13.1-9.9l-8-6.1C399.5,243.1,391.8,245.8,386.6,252.6z"/>
	<path id="XMLID_4418_" class="st0" d="M317.8,307.9l13.8,5.7l9.1,3.8v-8.8v-15l-11.2-7.4c-3.9-2.1-10.1,0.8-12.9,7.1
		C314.3,298.4,314.5,306.1,317.8,307.9z"/>
	<path id="XMLID_4417_" class="st0" d="M344.3,296.3v10.3V318v2.1v10c22.3,0.1,49,0.2,59.1,0.1v-40l-3.6-2.8l-8.7-6.6l-10.6-8
		c-3.7-3.4-3.2-15.6,1.2-22.3c4.3-6.8,10.7-10.9,18.6-8.3c0,0-5.9-8-14.2-8H353c-1.1,0-2,0.2-2.8,0.4c-6.6,1.7-5.9,10.1-5.9,20.2
		v33.7V296.3z"/>
	<path id="XMLID_4416_" class="st0" d="M211.5,402.1c2.9-0.9,5.9-1.8,9-2.7c5.6-1.6,11.5-2.9,17.7-4.4c3.1-0.6,6.3-1.2,9.5-1.8
		c3.2-0.6,6.4-1.3,9.8-1.7c3.3-0.4,6.7-0.9,10.1-1.3c1.7-0.2,3.4-0.4,5.2-0.6c1.7-0.1,3.5-0.2,5.3-0.4c3.5-0.2,7.1-0.4,10.7-0.7
		l2.7-0.2h2.7c1.8,0,3.7,0,5.5,0c3.7,0,7.4,0,11.1,0.1c3.7,0.3,7.5,0.6,11.3,0.8c1.9,0.1,3.8,0.3,5.7,0.4c1.9,0.2,3.8,0.2,5.7,0.6
		c3.8,0.6,7.6,1.2,11.5,1.8c1.9,0.3,3.8,0.6,5.8,0.9l1.5,0.2c0.7,0.1,1,0.2,1.5,0.3l2.8,0.6c3.7,0.7,7.4,1.5,11.2,2.4
		c3.8,0.9,7.6,1.8,11.4,2.7c3.8,0.9,7.5,1.9,11.3,3c14.9,4.1,29.7,8.8,43.9,13.7c5.6,1.9,11.1,3.8,16.6,5.7
		c225-7.8,152.5-132.6,152.5-132.6c-15.1,24.1-36.2,43.2-95.8,43.2c-45.6,0-179.8,0.2-189.4,0.1c-3.4,0-7,0-10.6,0
		c-14-0.1-29.4-0.1-46-0.1c-59.6,0-80.7-19.2-95.8-43.2C147.6,351.2,171.2,384.4,211.5,402.1z"/>
	<path id="XMLID_4415_" class="st1" d="M612.4,442.5c-2.5,0.6-5.4,1.4-8.6,2.2c-3.2,0.8-6.8,1.6-10.7,2.4c-4,0.6-8.1,1.7-12.7,2.2
		c-9,1.4-19.3,2.5-30.4,2.6c-11.1,0.1-23-0.8-35.5-3c-12.5-2.1-25.4-5.7-38.8-9.9c-6.7-2.2-13.5-4.4-20.4-6.8c-1.5-0.5-3-1-4.5-1.5
		c-5.5-1.9-11-3.8-16.6-5.7c-14.2-4.9-29-9.6-43.9-13.7c-3.7-1-7.5-2-11.3-2.9c-3.7-1-7.5-1.9-11.4-2.7c-3.8-0.9-7.5-1.7-11.2-2.4
		l-2.8-0.6c-0.5-0.1-0.8-0.2-1.5-0.3l-1.5-0.2c-1.9-0.3-3.8-0.6-5.8-0.9c-3.8-0.6-7.7-1.2-11.5-1.8c-1.9-0.3-3.8-0.4-5.7-0.6
		c-1.9-0.1-3.8-0.3-5.7-0.4c-3.8-0.3-7.5-0.6-11.3-0.8c-3.7,0-7.5,0-11.1-0.1c-1.8,0-3.7,0-5.5,0h-2.7l-2.7,0.1
		c-3.6,0.2-7.2,0.5-10.7,0.7c-1.8,0.1-3.5,0.2-5.3,0.4c-1.7,0.2-3.5,0.4-5.2,0.6c-3.4,0.4-6.8,0.9-10.1,1.3
		c-3.3,0.4-6.6,1.1-9.8,1.7c-3.2,0.6-6.3,1.2-9.4,1.8c-6.1,1.5-12.1,2.8-17.7,4.4c-3.1,0.9-6.1,1.8-9,2.7
		c-7.7,2.4-14.7,4.9-21.1,7.5c-4.4,1.8-8.5,3.4-12.1,5.2c-1.8,0.9-3.6,1.7-5.3,2.5c-1.7,0.8-3.3,1.6-4.8,2.4c-6,3-10.6,5.7-13.7,7.6
		c-3.1,1.9-4.7,3-4.7,3s7.1-2.9,19.9-6.8c1.6-0.5,3.3-1,5-1.5c1.8-0.5,3.6-1,5.6-1.5c1.9-0.5,3.9-1.1,6-1.7c2.1-0.5,4.3-1,6.5-1.6
		c8.9-2.2,19.1-4.3,30.2-6.2c3-0.5,6-0.9,9.1-1.3c2.7-0.4,5.5-0.8,8.3-1.1c3-0.3,6.1-0.6,9.2-0.9c3.1-0.3,6.2-0.7,9.5-0.8
		c3.2-0.2,6.4-0.3,9.7-0.5c1.6-0.1,3.3-0.2,4.9-0.3c1.7,0,3.3,0,5,0c3.3,0,6.7,0,10.1,0l2.6,0l2.6,0.2c1.7,0.1,3.4,0.2,5.2,0.3
		c3.5,0.2,7,0.4,10.5,0.6c3.5,0.4,7,0.8,10.6,1.2c1.8,0.2,3.5,0.4,5.3,0.6c1.8,0.2,3.6,0.4,5.3,0.8c3.5,0.6,7.1,1.3,10.7,1.9
		c1.8,0.3,3.6,0.6,5.4,1l1.3,0.2c0.2,0,0.9,0.2,1.3,0.3l2.8,0.6c3.7,0.9,7.4,1.7,11,2.6c3.6,0.8,7.2,1.7,10.8,2.7
		c3.6,0.9,7.3,1.9,10.9,2.9c0.4,0.1,0.8,0.2,1.1,0.3c14.1,3.9,28.1,8.3,42,12.6c7.1,2.3,14.3,4.5,21.4,6.6c7.1,2.2,14.2,4.2,21.3,6
		c14.1,3.6,28.2,6.5,41.7,7.7c13.6,1.3,26.5,1,38.3-0.4c11.8-1.4,22.3-3.9,31.3-6.7c4.6-1.3,8.7-2.9,12.6-4.2
		c3.8-1.5,7.3-2.9,10.4-4.2c6.2-2.7,10.9-5.1,14.1-6.7c3.2-1.7,4.9-2.6,4.9-2.6s-1.9,0.5-5.3,1.5C617,441.2,614.9,441.9,612.4,442.5
		z"/>
	<path id="XMLID_4414_" class="st1" d="M646.2,156l-4.9-8.5l-0.5-0.9L636,138c-1.9-3.4-6.2-4.5-9.6-2.6l-63,26.7
		c-11,6.3-7.6,17.3-5.7,20.7l2.7,4.8l0.2,0.4l-74.6,40.7c3.1,1.6,5.4,4.6,5.9,8.1l73.7-40.2l2.3,4.1c1.9,3.4,9.6,11.9,20.7,5.6
		l54.9-40.8C647,163.6,648.2,159.3,646.2,156z"/>
	<polygon id="XMLID_4413_" class="st1" points="444.9,251.4 427.6,261 431.2,263.7 	"/>
	<path id="XMLID_4412_" class="st1" d="M322,330.2l18.7-10.2l-11.9-4.9l-19.3,10.6c-2.4,1.3-2.4,2-1.2,4.4
		C312,330.2,318.6,330.2,322,330.2z"/>
</g>
</svg>
