<svg xmlns="http://www.w3.org/2000/svg" viewBox="0 0 96.38 311.81"><defs><style>.cls-1{fill:#1b3e70;}.cls-1,.cls-2{fill-rule:evenodd;}.cls-17,.cls-2,.cls-3,.cls-6,.cls-7{fill:#fff;}.cls-3{font-size:11.67px;}.cls-14,.cls-16,.cls-3,.cls-6,.cls-7,.cls-9{font-family:Arial-BoldMT, Arial;font-weight:700;}.cls-4{letter-spacing:-0.07em;}.cls-5{letter-spacing:0em;}.cls-6{font-size:5.65px;}.cls-7{font-size:6.98px;}.cls-8{letter-spacing:-0.09em;}.cls-9{font-size:7.5px;}.cls-11,.cls-14,.cls-16,.cls-9{fill:#231f20;}.cls-10{letter-spacing:-0.07em;}.cls-11{font-size:15.18px;font-family:ArialMT, Arial;}.cls-12,.cls-13{fill:none;stroke:#231f20;stroke-miterlimit:22.93;}.cls-12{stroke-width:0.93px;}.cls-13{stroke-width:0.69px;}.cls-14{font-size:6.22px;}.cls-15{letter-spacing:-0.05em;}.cls-16{font-size:8.13px;}.cls-17{stroke:#41b649;stroke-miterlimit:10;stroke-width:0.5px;}</style></defs><title>ISTestTag</title><g id="Layer_2" data-name="Layer 2"><g id="Foreground"><path class="cls-1" d="M86.74,311.81H9.64c-5.3,0-9.64-4-9.64-12.4V170c6.34-9.57,5.49-21.14,0-28.33V12C0,3.66,4.34,0,9.64,0h77.1c5.3,0,9.64,3.85,9.64,12.21V141.71c-5.63,7.59-6.08,20.48,0,28.33V299.67c0,8.37-4.34,12.14-9.64,12.14"/><polygon class="cls-2" points="17.92 161.28 13.05 161.28 8.76 154.71 13.16 148.13 17.87 148.13 13.68 154.68 17.92 161.28"/><polygon class="cls-2" points="78.46 161.28 83.33 161.28 87.62 154.71 83.22 148.13 78.5 148.13 82.7 154.68 78.46 161.28"/><text class="cls-3" transform="translate(19.77 159.29)">TEST <tspan class="cls-4" x="33.06" y="0">T</tspan><tspan class="cls-5" x="39.33" y="0">AG</tspan></text><text class="cls-6" transform="translate(84.25 97.37) rotate(180) scale(1 1.18)">TESTED TO AS/NZS 3760</text><text class="cls-7" transform="translate(15.03 202.47)">FOR YOUR SAFETY</text><text class="cls-7" transform="translate(13.41 209.42)">CHECK TEST D<tspan class="cls-8" x="51.57" y="0">A</tspan><tspan x="55.98" y="0">TES</tspan></text><path class="cls-2" d="M88,129.66H8.36c-1.48,0-2.7-.44-2.7-1V104.93c0-.54,1.21-1,2.7-1H88c1.48,0,2.69.44,2.69,1v23.74c0,.54-1.21,1-2.69,1"/><text class="cls-9" transform="translate(73.17 123.2) rotate(180)"><tspan class="cls-10">T</tspan><tspan x="4.03" y="0">AG NUMBER</tspan></text><text class="cls-11" transform="translate(73.52 107.87) rotate(180)">000001</text><path class="cls-2" d="M88,95.53H8.39a2.9,2.9,0,0,1-2.7-3.06V11.23a2.9,2.9,0,0,1,2.7-3.06H88a2.9,2.9,0,0,1,2.69,3.06V92.47A2.9,2.9,0,0,1,88,95.53"/><line class="cls-12" x1="90.69" y1="54.59" x2="5.64" y2="54.59"/><line class="cls-12" x1="90.69" y1="31.39" x2="5.69" y2="31.39"/><line class="cls-13" x1="48.22" y1="8.16" x2="48.22" y2="54.52"/><text class="cls-14" transform="translate(47.39 25.58) rotate(180) scale(0.84 1)">NEXT TEST DUE</text><text class="cls-14" transform="translate(86.72 25.41) rotate(180)">TEST D<tspan class="cls-15" x="22.13" y="0">A</tspan><tspan x="26.29" y="0">TE</tspan></text><text class="cls-14" transform="translate(89.14 48.66) rotate(180)">LICENCE No.</text><text class="cls-14" transform="matrix(-0.85, 0, 0, -1, 47.75, 48.71)">PLANT/ITEM No.</text><text class="cls-14" transform="translate(64.94 89.3) rotate(180)">TESTED BY</text><text class="cls-16" transform="matrix(-0.79, 0.02, 0, -1.36, 34.11, 12.92)">/</text><text class="cls-16" transform="matrix(-0.79, 0.02, 0, -1.36, 21.27, 12.92)">/</text><text class="cls-16" transform="matrix(-0.79, 0.02, 0, -1.36, 76.88, 12.92)">/</text><text class="cls-16" transform="matrix(-0.79, 0.02, 0, -1.36, 64.03, 12.92)">/</text><rect class="cls-17" x="5.67" y="213.72" width="85.04" height="87.36"/></g></g></svg>