<svg xmlns="http://www.w3.org/2000/svg" xmlns:xlink="http://www.w3.org/1999/xlink" version="1.1" x="0px" y="0px" viewBox="0 0 100 125" enable-background="new 0 0 100 100" xml:space="preserve"><path d="M22.5,51.5c1.667,0,3.333,0,5,0c0.707,0,1,0.293,1,1c0,2.5,0,5,0,7.5c0,11.874,9.626,21.5,21.5,21.5S71.5,71.874,71.5,60  c0-2.5,0-5,0-7.5c0-0.707,0.293-1,1-1c1.667,0,3.333,0,5,0c2.209,0,4-1.791,4-4c0-1.666,0-3.334,0-5c0-2.209-1.791-4-4-4  c-1.667,0-3.333,0-5,0c-0.707,0-1-0.293-1-1c0-5,0-10,0-15c0-2.209-1.791-4-4-4c-1.667,0-3.333,0-5,0c-2.209,0-4,1.791-4,4  c0,5,0,10,0,15c0,0.707-0.293,1-1,1c-5,0-10,0-15,0c-0.707,0-1-0.293-1-1c0-5,0-10,0-15c0-2.209-1.791-4-4-4c-1.667,0-3.333,0-5,0  c-2.209,0-4,1.791-4,4c0,5.334,0,10.666,0,16c0,0.828,0.672,1.5,1.5,1.5s1.5-0.672,1.5-1.5c0-5.334,0-10.666,0-16  c0-0.707,0.293-1,1-1c1.667,0,3.333,0,5,0c0.707,0,1,0.293,1,1c0,5,0,10,0,15c0,2.209,1.791,4,4,4c5,0,10,0,15,0  c2.209,0,4-1.791,4-4c0-5,0-10,0-15c0-0.707,0.293-1,1-1c1.667,0,3.333,0,5,0c0.707,0,1,0.293,1,1c0,5,0,10,0,15  c0,2.209,1.791,4,4,4c1.667,0,3.333,0,5,0c0.707,0,1,0.293,1,1c0,1.666,0,3.334,0,5c0,0.707-0.293,1-1,1c-1.667,0-3.333,0-5,0  c-2.209,0-4,1.791-4,4c0,2.5,0,5,0,7.5c0,10.217-8.283,18.5-18.5,18.5c-10.217,0-18.5-8.283-18.5-18.5c0-2.5,0-5,0-7.5  c0-2.209-1.791-4-4-4c-1.667,0-3.333,0-5,0c-0.707,0-1-0.293-1-1c0-2,0-4,0-6c0-0.828-0.672-1.5-1.5-1.5s-1.5,0.672-1.5,1.5  c0,2,0,4,0,6C18.5,49.709,20.291,51.5,22.5,51.5z"/><text x="0" y="115" fill="#000000" font-size="5px" font-weight="bold" font-family="'Helvetica Neue', Helvetica, Arial-Unicode, Arial, Sans-serif">Created by Anton Ivanov</text><text x="0" y="120" fill="#000000" font-size="5px" font-weight="bold" font-family="'Helvetica Neue', Helvetica, Arial-Unicode, Arial, Sans-serif">from the Noun Project</text></svg>