<?xml version="1.0" encoding="UTF-8" standalone="no" ?>
<!DOCTYPE svg PUBLIC "-//W3C//DTD SVG 1.1//EN" "http://www.w3.org/Graphics/SVG/1.1/DTD/svg11.dtd">
<svg xmlns="http://www.w3.org/2000/svg" xmlns:xlink="http://www.w3.org/1999/xlink" version="1.1" width="511.78" height="511.78" viewBox="0 0 511.78 511.78" xml:space="preserve">
<desc>Created with Fabric.js 1.7.2</desc>
<defs></defs>
<g style="stroke: rgb(102,0,0); stroke-width: 0; stroke-dasharray: none; stroke-linecap: butt; stroke-linejoin: miter; stroke-miterlimit: 10; fill: rgb(102,0,0); fill-rule: nonzero; opacity: 1;" transform="translate(0 0)" >
	<path d="M 265.48 84.471 c -3.465 9.271 -15.717 9.271 -19.173 0 l -15.744 -42.167 C 223.734 24 234.203 2.487 252.47 0.21 c 1.125 -0.137 2.267 -0.21 3.419 -0.21 c 1.161 0 2.304 0.073 3.429 0.21 c 18.267 2.277 28.727 23.79 21.897 42.094 L 265.48 84.471 z" style="stroke: none; stroke-width: 0; stroke-dasharray: none; stroke-linecap: butt; stroke-linejoin: miter; stroke-miterlimit: 10; fill: rgb(207,210,207); fill-rule: nonzero; opacity: 1;" transform=" matrix(1 0 0 1 0 0) " stroke-linecap="round" />
	<path d="M 316.865 194.443 c -40.649 8.475 -81.298 8.475 -121.947 0 C 134.245 218.69 91.32 277.881 91.32 347.211 c 0 90.889 73.682 164.571 164.571 164.571 S 420.463 438.1 420.463 347.211 C 420.463 277.881 377.537 218.69 316.865 194.443" style="stroke: none; stroke-width: 0; stroke-dasharray: none; stroke-linecap: butt; stroke-linejoin: miter; stroke-miterlimit: 10; fill: rgb(190,58,43); fill-rule: nonzero; opacity: 1;" transform=" matrix(1 0 0 1 0 0) " stroke-linecap="round" />
	<path d="M 168.576 262.956 c -2.441 0 -4.864 -0.969 -6.665 -2.88 c -3.456 -3.685 -3.273 -9.472 0.402 -12.928 c 9.838 -9.225 20.919 -16.914 32.933 -22.848 c 4.526 -2.258 10.002 -0.384 12.242 4.151 c 2.231 4.526 0.375 10.002 -4.151 12.242 c -10.395 5.129 -19.986 11.794 -28.498 19.785 C 173.065 262.133 170.825 262.956 168.576 262.956" style="stroke: none; stroke-width: 0; stroke-dasharray: none; stroke-linecap: butt; stroke-linejoin: miter; stroke-miterlimit: 10; fill: rgb(156,40,31); fill-rule: nonzero; opacity: 1;" transform=" matrix(1 0 0 1 0 0) " stroke-linecap="round" />
	<path d="M 182.75 201.032 L 182.75 201.032 c 48.759 12.187 97.527 12.187 146.286 0 v -54.857 H 182.75 V 201.032 z" style="stroke: none; stroke-width: 0; stroke-dasharray: none; stroke-linecap: butt; stroke-linejoin: miter; stroke-miterlimit: 10; fill: rgb(156,40,31); fill-rule: nonzero; opacity: 1;" transform=" matrix(1 0 0 1 0 0) " stroke-linecap="round" />
	<polygon points="201.04,146.18 310.75,146.18 310.75,118.75 201.04,118.75 " style="stroke: none; stroke-width: 0; stroke-dasharray: none; stroke-linecap: butt; stroke-linejoin: miter; stroke-miterlimit: 10; fill: rgb(190,58,43); fill-rule: nonzero; opacity: 1;" transform="  matrix(1 0 0 1 0 0) "/>
	<polygon points="237.61,118.75 274.18,118.75 274.18,82.17 237.61,82.17 " style="stroke: none; stroke-width: 0; stroke-dasharray: none; stroke-linecap: butt; stroke-linejoin: miter; stroke-miterlimit: 10; fill: rgb(228,229,230); fill-rule: nonzero; opacity: 1;" transform="  matrix(1 0 0 1 0 0) "/>
	<polygon points="255.89,255.89 282.2,319.89 356.46,319.89 292.46,365.6 319.89,438.75 255.89,393.03 191.89,438.75 219.32,365.6 155.32,319.89 229.59,319.89 " style="stroke: rgb(102,0,0); stroke-width: 0; stroke-dasharray: none; stroke-linecap: butt; stroke-linejoin: miter; stroke-miterlimit: 10; fill: rgb(102,0,0); fill-rule: nonzero; opacity: 1;" transform="  matrix(1 0 0 1 0 0) "/>
</g>
</svg>