<?xml version="1.0" encoding="utf-8"?>
<!-- Generator: Adobe Illustrator 16.0.0, SVG Export Plug-In . SVG Version: 6.00 Build 0)  -->
<!DOCTYPE svg PUBLIC "-//W3C//DTD SVG 1.1//EN" "http://www.w3.org/Graphics/SVG/1.1/DTD/svg11.dtd">
<svg version="1.1" id="Shape_1_1_" xmlns="http://www.w3.org/2000/svg" xmlns:xlink="http://www.w3.org/1999/xlink" x="0px" y="0px"
	 width="136.32px" height="104.64px" viewBox="0 0 136.32 104.64" enable-background="new 0 0 136.32 104.64" xml:space="preserve">
<g id="Shape_1">
	<g>
		<path d="M110.602,84.847c-4.155-3.354-7.976-7.149-12.4-10.285c-2.796-1.981-7.192-3.92-8.771-7.06
			c-2.669-5.305-6.422-13.1,1.916-15.629c1.156,0.264,2.654,4.767,5.746,5.748c5.008,1.589,8.951-1.929,10.888-4.537
			c0.614-0.828,2.377-2.623,1.613-4.034c-0.058-0.089-4.043-0.763-4.638-1.008c-2.352-0.969-6.831-3.372-10.182-1.412
			c-1.764,1.031-2.198,3.1-3.327,3.933c-0.672,0.202-1.345,0.403-2.017,0.605c-2.652,1.094-3.854,2.405-4.436,5.647
			c-0.067,0.034-0.135,0.067-0.202,0.101c-0.701-1.71-3.824-12.048-3.125-14.016c1.321-3.717,5.967-6.13,4.94-12.201
			c-1.084-6.408-5.601-8.127-7.158-13.916c-0.37-0.067-0.739-0.135-1.109-0.202c-1.01,1.025-1.544,2.464-2.318,3.731
			c-2.961,4.841-5.513,10.703-1.814,16.94c0.748,1.263,1.88,2.649,3.024,3.53c0.921,0.708,2.186,1.133,2.822,2.117
			c1.096,1.693,1.207,5.109,1.613,7.26c-0.067,0.067-0.135,0.135-0.201,0.202c-1.58-0.806-3.159-1.613-4.739-2.42
			c-0.234-0.639-0.47-1.277-0.705-1.916c-1.207-1.996-4.577-5.144-8.267-4.437c-3.02,0.579-5.013,2.729-7.763,3.63
			c-0.703,1.16,2.706,2.802,3.73,3.63c1.21,1.042,2.42,2.084,3.629,3.126c3.209,1.999,7.661-1.236,8.872-2.723
			c1.143,0.136,2.015,0.733,2.823,1.21c3.989,2.353,3.308,4.206,5.142,8.471c1.243,2.654,2.486,5.311,3.73,7.966v0.303
			c-1.84-0.34-3.358-2.08-4.84-2.925c-2.176-1.241-4.329-2.129-6.352-3.327C69.1,57.016,61.47,53.083,53.842,49.15
			c-1.588-1.197-3.022-4.12-3.932-5.949c0.162-2.771,2.938-5.495,3.528-8.975c1.31-7.721-5.418-13.136-9.174-16.134
			c-1.39-1.109-3.078-3.729-5.142-3.933c-1.091,1.733-1.49,4.738-2.117,6.756c-0.303,1.58-0.605,3.16-0.907,4.739
			c-1.481,8.041,3.782,13.757,8.67,16.235c1.243,0.403,2.487,0.807,3.73,1.21l2.924,5.042c-1.933-0.123-3.407-1.359-4.94-2.017
			c-3.192-1.244-6.385-2.488-9.578-3.731c-1.814-0.571-3.629-1.143-5.444-1.714c-0.807-1.647-1.613-3.294-2.419-4.941
			c-1.892-2.6-4.821-4.618-7.964-5.95c-2.911-1.233-7.609-2.136-11.393-1.008c-2.532,0.754-5.823,2.771-9.073,1.815
			c-0.556,0.272-0.638,0.342-0.605,1.21c1.117,0.747,1.646,1.932,2.42,3.025c2.827,3.993,4.964,8.034,9.779,10.083
			c5.875,2.501,11.481-1.104,16.332-2.42c1.075-0.202,2.151-0.403,3.226-0.605c1.781,0.605,3.562,1.21,5.343,1.815
			c5.764,2.013,10.774,4.096,16.131,6.453c1.747,0.874,3.495,1.748,5.242,2.622c0.067,0.101,0.134,0.201,0.202,0.303
			c-5.063,0.027-11.477,0.024-15.526,1.513c-2.278-2.437-7.465-4.41-11.997-2.723c-2.126,0.792-3.784,3.958-5.142,5.647
			c-1.713,1.613-3.428,3.227-5.142,4.84v0.505c0.977,0.532,2.555,0.05,3.932,0.302c4.524,0.83,11.087,2.104,14.518-0.604
			c1.805-1.426,2.823-6.213,3.831-6.857c1.479-0.336,2.958-0.672,4.436-1.008c3.466-0.591,8.046-0.755,11.594-0.303
			c0.868,0.11,1.502-0.362,2.419-0.101c5.981,3.192,11.964,6.387,17.945,9.579c0.101,0.135,0.202,0.27,0.303,0.403
			c-1.613,0.639-3.227,1.277-4.839,1.916c-1.254,0.346-5.24-0.104-6.453-0.504c-1.68-1.479-3.36-2.958-5.04-4.438
			c-3.166-1.924-7.354-0.543-10.586,0.303c0.341,2.685,5.763,6.339,9.678,5.748c1.646-0.303,3.293-0.605,4.94-0.907
			c1.311,0.269,2.621,0.537,3.932,0.807v0.101c-0.635,0.704-7.816,4.067-9.073,3.933c-2.93-0.313-6.335-1.031-9.376-0.101
			c-3.993,1.223-5.876,4.311-7.46,7.966c-0.349,0.805-2.552,5.075-2.017,6.252c0.691,1.519,10.26,0.918,11.695,0.303
			c2.583-1.107,5.164-3.66,6.049-6.454c0.655-2.067,0.898-4.486,2.016-6.15c1.36-2.026,9.464-5.119,12.4-6.051
			c0.067,0.034,0.135,0.067,0.202,0.101c0.185,1.205,0.248,7.996-0.102,8.874c-0.802,2.017-2.76,3.065-3.326,5.445
			c-0.719,3.014,0.746,6.034,0.101,9.075c0.168,0.135,0.336,0.27,0.504,0.403c1.545-0.241,2.569-1.984,3.629-2.823
			c1.432-1.132,3.422-2.326,4.134-4.134c0.938-2.38-0.326-5.787-1.311-7.059c-0.571-0.505-1.143-1.009-1.714-1.513
			c-0.85-1.564-0.79-7.25-0.403-9.076c4.889-2.883,9.173,1.688,12.199,3.832c5.874,4.163,11.504,8.445,17.037,12.907
			c1.546,1.58,3.092,3.16,4.638,4.739c0.88,1.108,1.652,2.739,3.024,3.328c0.202,0.033,0.403,0.067,0.604,0.101
			c0.348-0.497,0.53-0.776,0.505-1.714C113.827,87.94,112.214,86.393,110.602,84.847z M93.664,52.075
			c0.101,0.134,0.201,0.269,0.303,0.403C93.664,52.285,93.797,52.46,93.664,52.075z M94.672,52.075
			c0.067-0.034,0.135-0.067,0.202-0.101h0.504l2.218,3.428c0.034,0.102,0.067,0.202,0.101,0.303
			C96.194,55.555,94.998,53.431,94.672,52.075z M100.016,55.705c-1.648-0.061-3.002-1.834-3.227-3.327h0.706
			c0.84,1.075,1.681,2.151,2.521,3.227V55.705z M99.007,52.982v-0.101c0.202-0.067,0.403-0.134,0.605-0.201
			c1.491,0.511,2.117,2.074,3.831,2.621C101.651,56.648,99.595,54.004,99.007,52.982z M101.931,53.587
			c-0.201-0.235-0.403-0.471-0.604-0.706c0.269-0.101,0.537-0.201,0.807-0.303c0.852,0.67,1.418,1.468,2.722,1.715
			C103.695,54.78,102.65,53.906,101.931,53.587z M107.072,51.974l-0.302-0.101h-0.202v-0.101c0.135-0.067,0.269-0.135,0.403-0.202
			h0.202C107.14,51.705,107.106,51.839,107.072,51.974z M106.266,50.26c0.067-0.101,0.135-0.202,0.202-0.302
			c0.303,0.033,0.604,0.067,0.907,0.101c-0.369,0.101-0.739,0.202-1.109,0.302V50.26z M103.544,52.579h-0.201
			c0.234-0.066,0.47-0.134,0.705-0.201l2.218,0.504C105.549,53.626,104.088,53.18,103.544,52.579z M105.258,49.554
			c0.101,0.101,0.201,0.201,0.303,0.302l-0.706,0.605h-0.101C104.876,49.962,105.018,49.888,105.258,49.554z M104.351,49.251
			c-0.49,1.155-1.199,1.516-2.117,2.218h-0.403c-0.033-0.067-0.067-0.134-0.101-0.202c0.672-0.807,1.344-1.614,2.017-2.42
			C103.947,48.982,104.148,49.117,104.351,49.251z M102.737,48.344c-0.491,1.584-1.599,2.439-3.226,2.924h-0.403
			c0.897-1.106,2.021-1.869,2.822-3.126C102.2,48.209,102.469,48.277,102.737,48.344z M100.721,47.638l0.202,0.504
			c-0.599,1.237-2.14,2.848-3.73,2.723v-0.101c1.23-0.529,2.505-1.996,2.924-3.328C100.318,47.503,100.52,47.571,100.721,47.638z
			 M98.201,47.234c0.269,0.067,0.537,0.135,0.806,0.202h0.202c-0.653,1.618-1.903,2.49-3.528,3.126h-0.403
			C96.188,49.376,97.334,48.539,98.201,47.234z M96.386,47.335c0.168,0.034,0.337,0.067,0.505,0.101
			c-0.408,1.555-2.199,2.474-3.63,3.025C93.806,48.759,95.108,48.292,96.386,47.335z M84.49,28.075
			c-0.946,2.135-2.139,4.597-4.537,5.244c-0.101-0.067-0.201-0.134-0.303-0.202v-0.504c1.527-1.536,3.409-2.59,4.537-4.538H84.49z
			 M82.675,24.849c-0.466,1.374-0.994,3.032-2.218,3.63c-0.168,0.168-0.336,0.336-0.504,0.504h-0.101
			c-0.118-1.239,1.903-2.954,2.521-4.437C82.474,24.647,82.574,24.748,82.675,24.849z M79.953,26.664h-0.101
			c-0.087-1.344,1.125-2.028,1.814-2.924C81.927,24.65,80.678,26.28,79.953,26.664z M79.752,20.916
			c0.577,0.471,1.014,1.163,1.311,1.916c-0.293,0.832-0.562,1.218-1.009,1.815c-0.101,0.033-0.201,0.067-0.302,0.101V20.916z
			 M83.381,25.958c0.135,0.135,0.269,0.27,0.403,0.404c0.522,1.459-2.679,4.755-4.134,4.941c-0.033-0.101-0.066-0.202-0.101-0.303
			C79.677,29.939,82.613,27.091,83.381,25.958z M78.239,19.202h0.303v1.513C78.011,20.322,77.963,19.89,78.239,19.202z
			 M78.643,23.034c-0.033,0.134-0.067,0.269-0.101,0.403h-0.101c-0.768-0.562-0.917-1.263-1.21-2.319
			C77.701,21.756,78.172,22.395,78.643,23.034z M76.324,22.328c0.772,1.008,1.546,2.017,2.318,3.025
			c-0.033,0.302-0.067,0.604-0.101,0.907l-0.202,0.101c-0.794-1.05-1.68-1.896-2.218-3.227
			C76.151,22.68,76.194,22.593,76.324,22.328z M75.315,23.941c1.103,1.053,2.329,2.727,3.227,3.933v0.706h-0.101
			c-1.188-0.654-3.006-2.266-3.327-3.731C75.182,24.546,75.248,24.244,75.315,23.941z M78.441,30.294
			c-0.034,0.269-0.067,0.538-0.102,0.807c-2.053-0.773-4.169-2.486-4.032-5.143C75.818,27.092,77.339,28.746,78.441,30.294z
			 M73.804,28.681c0.241,0.12,4.426,3.66,4.638,3.933c0.033,0.101,0.066,0.202,0.101,0.302v0.908
			C76.256,33.374,72.94,31.336,73.804,28.681z M73.904,32.311c0.129,0.059,4.535,2.52,4.537,2.521
			c0.033,0.034,0.066,0.067,0.101,0.101c0.212,0.295,0.22,0.767,0.101,1.109v0.202C76.579,35.581,73.933,34.975,73.904,32.311z
			 M75.416,36.042c1.244,0.504,2.487,1.009,3.73,1.513c-0.033,0.202-0.067,0.403-0.101,0.605c-0.034,0.067-0.067,0.134-0.101,0.202
			C77.285,38.191,76.057,37.251,75.416,36.042z M77.433,38.865c0.706,0.235,1.412,0.47,2.117,0.706
			c0.034,0.37,0.067,0.74,0.101,1.109C78.639,40.201,78.001,39.787,77.433,38.865z M79.953,35.235
			c-0.101-0.302-0.201-0.605-0.303-0.908c2.278-0.619,4.547-2.837,5.243-5.042l0.302,0.605c-0.269,3.027-3.283,3.585-4.839,5.344
			H79.953z M80.154,37.05c0.09-1.582,3.983-3.449,5.041-4.538c0.26,1.121-3.56,4.668-4.939,4.84
			C80.222,37.251,80.188,37.151,80.154,37.05z M83.078,36.848c0.379,0.693-1.764,2.273-2.521,2.42
			C80.631,37.717,82.034,37.43,83.078,36.848z M80.961,40.277c0.538-0.437,1.076-0.874,1.613-1.311
			c0.107,0.488-0.476,1.022-0.705,1.513l-0.706,0.605v-0.202L80.961,40.277z M73.804,46.73c-0.202-0.067-0.403-0.135-0.605-0.202
			l-1.008-1.916C72.919,45.077,73.531,45.82,73.804,46.73z M68.46,42.797c1.359,0.59,2.754,1.815,3.327,3.227v0.303
			c-0.45-0.071-3.038-2.852-3.428-3.328C68.393,42.932,68.427,42.865,68.46,42.797z M69.871,45.621
			c0.034,0.101,0.067,0.202,0.102,0.303c-1.036-0.082-2.217-1.536-2.722-2.218C68.664,43.967,69.046,44.814,69.871,45.621z
			 M67.049,44.713c0.336,0.37,0.672,0.74,1.008,1.109c-1.291-0.059-1.859-0.751-2.319-1.613
			C66.175,44.377,66.612,44.545,67.049,44.713z M63.117,45.218c0.37-0.202,0.74-0.403,1.109-0.605
			c0.202,0.034,0.403,0.067,0.604,0.101c0.168,0.202,0.336,0.404,0.504,0.605c-0.457,0.285-1.56,0.285-2.017,0
			C63.251,45.285,63.184,45.251,63.117,45.218z M63.419,46.831c0.067-0.033,0.134-0.067,0.202-0.101h0.101
			c0.034,0.067,0.067,0.134,0.101,0.202C63.688,46.898,63.554,46.865,63.419,46.831z M65.839,47.033
			c-0.438,0.47-0.667,0.705-1.512,0.806c0.269-0.336,0.538-0.672,0.807-1.008h0.605c0.034,0.034,0.067,0.067,0.101,0.101V47.033z
			 M66.041,48.142c0.269-0.37,0.538-0.739,0.807-1.109c0.202,0.033,0.403,0.067,0.605,0.101h0.202v0.101
			c-0.37,0.336-0.74,0.672-1.109,1.008h-0.504V48.142z M66.646,49.856c-0.101-0.134-0.202-0.269-0.302-0.403
			c0.907-0.773,1.814-1.546,2.722-2.319c0.269,0.067,0.537,0.134,0.806,0.202C69.464,48.564,68.226,49.803,66.646,49.856z
			 M68.259,50.865c-0.135-0.034-0.269-0.067-0.403-0.101c1.008-1.075,2.017-2.151,3.024-3.227h0.504
			c0.033,0.101,0.067,0.202,0.101,0.302C71.221,49.407,69.597,50.349,68.259,50.865z M70.477,50.764
			c0.739-0.941,1.479-1.882,2.218-2.823c0.235,0.067,0.471,0.134,0.706,0.202C72.742,49.195,71.77,50.358,70.477,50.764z
			 M74.005,49.352h-0.303c0.169-0.269,0.337-0.538,0.505-0.807c0.134,0.067,0.269,0.135,0.403,0.202
			C74.408,48.949,74.207,49.15,74.005,49.352z M51.12,27.874c-0.19,3.193-3.472,5.253-4.436,7.966
			c-0.101,0.067-0.202,0.134-0.302,0.202c-0.168-0.437-0.336-0.874-0.504-1.311c1.68-2.386,3.361-4.773,5.041-7.159
			C50.985,27.672,51.053,27.773,51.12,27.874z M50.112,25.756c0.101,0.101,0.202,0.201,0.302,0.302
			c0.1,1.812-3.803,5.575-4.637,7.462c-0.101,0.067-0.202,0.135-0.303,0.202c-0.101-0.235-0.202-0.47-0.302-0.706
			c0.265-2.055,3.517-5.505,4.638-7.26H50.112z M48.801,24.244c0.168,0.134,0.336,0.269,0.504,0.403
			c-1.411,2.218-2.823,4.437-4.234,6.655c-0.101,0.034-0.202,0.067-0.302,0.101C43.987,28.991,47.439,26.029,48.801,24.244z
			 M48.096,23.134c-0.548,2.004-2.807,4.883-4.335,6.05c-0.067-0.235-0.134-0.471-0.202-0.706c1.304-1.89,2.794-3.538,4.134-5.344
			H48.096z M47.188,22.227c-0.883,1.387-2.532,4.378-4.133,4.941c-0.101-0.336-0.202-0.672-0.302-1.008
			c1.107-1.761,2.541-2.959,3.73-4.538C46.718,21.823,46.953,22.025,47.188,22.227z M44.97,20.513h0.403
			c0.067,0.235,0.134,0.47,0.202,0.706c-0.899,1.164-2.229,2.074-2.823,3.529c-0.135,0.034-0.269,0.067-0.403,0.101
			c-0.067-0.37-0.135-0.74-0.202-1.109C43.088,22.664,44.029,21.588,44.97,20.513z M44.164,19.807
			c-0.739,0.908-1.479,1.815-2.218,2.723c-0.101-0.202-0.202-0.403-0.303-0.605c0.639-0.874,1.277-1.748,1.916-2.622
			C44.003,19.441,43.959,19.459,44.164,19.807z M42.551,18.496c0.363,0.52-0.63,1.42-0.908,2.017
			c-0.067,0.034-0.134,0.067-0.202,0.101h-0.101c-0.034-0.235-0.067-0.47-0.101-0.706C41.626,19.291,42.023,18.959,42.551,18.496z
			 M40.736,16.782c0.336,0.269,0.672,0.538,1.008,0.807v0.202c-0.101,0.168-0.202,0.336-0.303,0.504
			c-0.134,0.101-0.269,0.201-0.403,0.302C40.798,18.01,40.57,17.58,40.736,16.782z M39.325,17.689
			c0.291,0.18,0.252,0.195,0.403,0.504h-0.403V17.689z M39.022,19c0.502,0.327,0.839,0.529,1.109,1.109v0.302
			c-0.437-0.37-0.874-0.739-1.311-1.109C38.888,19.202,38.955,19.101,39.022,19z M38.72,20.412c0.702,0.563,1.52,0.813,1.916,1.714
			c-0.94-0.115-1.861-0.401-2.218-1.109l-0.202-0.202C38.384,20.681,38.552,20.546,38.72,20.412z M38.014,22.126
			c0.975,0.504,1.949,1.008,2.924,1.513c0.067,0.336,0.134,0.672,0.202,1.008c-0.067,0.033-0.134,0.067-0.202,0.101
			c-1.042-0.47-2.083-0.941-3.125-1.412C37.879,22.933,37.947,22.529,38.014,22.126z M37.711,24.244
			c1.587,0.457,2.532,1.472,3.932,2.017c0.168,0.605,0.336,1.21,0.504,1.815C40.396,27.386,36.86,26.328,37.711,24.244z
			 M37.409,26.664c2.231,1.072,5.014,2.003,5.948,4.437c-2.083-1.042-4.167-2.084-6.25-3.126
			C37.116,27.306,37.213,27.073,37.409,26.664z M37.409,29.185c1.914,0.938,5.749,2.085,6.754,3.933v0.605
			c-2.285-1.042-4.57-2.084-6.855-3.126C37.342,30.126,37.375,29.655,37.409,29.185z M37.711,31.806
			c1.762,0.296,7.196,2.834,7.46,4.437c0.034,0.134,0.067,0.269,0.101,0.403c-0.067,0.034-0.134,0.067-0.202,0.101
			C42.526,35.612,38.198,35.026,37.711,31.806z M39.425,35.437c2.184,0.874,4.369,1.748,6.553,2.622
			c0.168,0.37,0.336,0.74,0.504,1.109v0.101C43.8,38.797,40.52,37.626,39.425,35.437z M47.491,41.386
			c-0.034,0.033-0.067,0.067-0.101,0.101c-1.624-0.171-2.958-0.973-3.73-2.017c1.489,0.139,2.754,0.881,3.831,1.512V41.386z
			 M47.39,37.958c-1.102-1.003,3.431-7.01,4.134-8.269c1.023,0.944-3.483,6.756-4.033,8.269H47.39z M48.297,39.772v0.202
			c-0.067-0.034-0.134-0.067-0.201-0.101c-0.427-2.078,2.986-5.651,3.831-7.563h0.101l0.202,0.202
			C51.64,34.317,49.54,38.549,48.297,39.772z M49.003,41.386h-0.101c-0.034-0.202-0.067-0.404-0.101-0.605
			c0.941-1.647,1.882-3.294,2.823-4.941h0.202C51.592,37.314,50.073,40.581,49.003,41.386z M25.815,33.924
			c1.272,0.635,2.104,4.188,2.419,5.748c-1.541-0.727-2.535-3.987-2.823-5.849C25.546,33.857,25.681,33.891,25.815,33.924z
			 M26.017,38.361c-0.117,0.766-0.492,0.44-1.109,0.303c-0.691-2.408-1.732-4.991-2.923-6.958
			C24.368,31.979,25.368,36.305,26.017,38.361z M23.9,38.159c-0.067,0.067-0.135,0.134-0.202,0.202
			c-0.101-0.034-0.202-0.067-0.303-0.101c-0.706-1.513-1.411-3.025-2.117-4.538c-0.739-1.143-1.479-2.286-2.218-3.428
			C21.657,31.152,23.152,35.455,23.9,38.159z M15.633,29.386c3.353,0.727,5.294,5.267,6.452,8.269v0.101
			c-0.779-0.083-1.472-0.297-1.814-0.807c-0.672-1.378-1.344-2.756-2.017-4.134l-2.722-3.227
			C15.565,29.521,15.599,29.454,15.633,29.386z M12.709,29.386c3.012,0.119,5.637,4.966,6.553,7.462v0.101
			c-0.134,0.034-0.269,0.067-0.403,0.101c-2.333-1.799-2.957-5.494-5.747-6.857c-0.202-0.235-0.403-0.471-0.604-0.706
			C12.575,29.454,12.642,29.42,12.709,29.386z M9.584,30.193c0.067-0.033,0.134-0.067,0.202-0.101
			c0.202-0.101,0.403-0.202,0.605-0.303c2.596,0.222,5.678,4.478,6.654,6.555c-3.063-0.04-4.354-4.922-7.46-6.05V30.193z
			 M13.717,35.538c-0.101,0.033-0.202,0.067-0.302,0.101c-1.056-0.354-4.645-4.001-5.444-4.941
			C10.505,31.266,12.841,33.307,13.717,35.538z M10.491,34.73c-1.962-0.476-2.77-1.796-3.73-3.227
			C8.508,31.71,9.927,33.297,10.491,34.73z M4.543,31.605c0.953,0.262,1.866,1.008,2.521,1.613c0.034,0.101,0.067,0.202,0.101,0.302
			c-1.472-0.12-2.594-0.663-3.629-1.21c-0.034-0.101-0.067-0.202-0.101-0.302C3.804,31.874,4.174,31.739,4.543,31.605z
			 M3.132,33.521l0.605,0.101c0.101,0.134,0.202,0.269,0.302,0.403C3.552,34.101,3.376,33.962,3.132,33.521z M4.442,35.134
			c-0.034-0.101-0.067-0.202-0.101-0.303c0.37-0.134,0.74-0.269,1.109-0.403c0.518,0.052,0.735,0.131,1.008,0.403
			c-0.638,0.134-1.277,0.269-1.916,0.403C4.51,35.201,4.476,35.167,4.442,35.134z M5.047,36.142c0.84-0.335,1.68-0.672,2.521-1.008
			c0.403,0.134,0.806,0.269,1.209,0.403c-1.008,0.403-2.017,0.807-3.024,1.21C5.349,36.555,5.269,36.513,5.047,36.142z
			 M5.955,37.756v-0.101c1.377-0.604,2.756-1.21,4.133-1.815c0.269,0.101,0.538,0.202,0.807,0.302l0.101,0.202
			c-0.993,0.432-3.438,2.3-4.839,1.412H5.955z M7.265,39.571c-0.034-0.034-0.067-0.067-0.101-0.101
			c-0.067-0.202-0.134-0.404-0.201-0.605c1.785-0.678,3.734-1.074,4.94-2.32l1.008,0.202h0.202
			C12.274,38.101,9.163,39.383,7.265,39.571z M7.971,40.377c2.275-0.838,4.615-1.82,6.352-3.227
			c0.903,0.013,1.277,0.207,1.916,0.403c-1.184,1.845-4.824,3.553-7.763,3.529C8.202,40.814,8.104,40.832,7.971,40.377z
			 M9.886,42.193c-0.033-0.135-0.067-0.269-0.101-0.403c2.81-0.37,6.042-2.239,7.561-4.034c0.336,0.101,0.672,0.202,1.008,0.302
			c0.101,0.067,0.202,0.135,0.302,0.202c-1.479,1.927-5.042,4.248-8.267,4.235C10.223,42.394,10.054,42.293,9.886,42.193z
			 M11.903,43.302c0.42-0.56,2.015-0.908,2.923-1.312c1.695-0.752,3.864-2.11,4.94-3.529l1.311,0.202
			c-0.503,1.744-5.03,4.808-6.957,5.243C13.102,44.137,12.499,43.551,11.903,43.302z M15.834,44.411
			c-0.067-0.034-0.134-0.067-0.202-0.101v-0.101c2.277-1.784,4.777-2.763,6.452-5.143c0.336,0.101,0.672,0.202,1.008,0.303h0.202
			C22.711,40.973,17.716,44.896,15.834,44.411z M19.061,44.31v-0.101c1.921-0.89,4.063-2.911,5.444-4.437
			c0.302,0.067,0.604,0.135,0.907,0.202C24.762,42.23,21.642,43.881,19.061,44.31z M25.311,42.193H25.21V41.89
			c0.504-0.504,1.008-1.008,1.512-1.513c0.571,0.135,1.143,0.269,1.714,0.404C28.51,41.344,26.146,41.9,25.311,42.193z
			 M29.545,39.772c-0.609-0.476-0.854-1.29-0.907-2.319c0.49,0.439,0.681,0.997,0.907,1.714V39.772z M40.635,54.495
			c-1.109-0.437-2.218-0.874-3.327-1.311c-1.008-0.235-2.016-0.471-3.024-0.706C37.062,52.458,39.412,52.959,40.635,54.495z
			 M31.763,53.285c3.001,0.091,5.189,0.821,7.46,1.412c0.101,0.134,0.202,0.269,0.303,0.403c-1.13,0.827-5.933-1.099-8.166-1.311
			l-0.101-0.202C31.427,53.487,31.595,53.386,31.763,53.285z M30.856,54.697c2.371,0.008,3.823,0.541,5.545,1.008
			c0.034,0.067,0.067,0.135,0.101,0.202c-1.966,0.935-4.772-0.407-7.359-0.505C29.607,54.909,30.132,54.974,30.856,54.697z
			 M30.049,56.31c1.307,0.008,2.052,0.304,3.025,0.504v0.101c-0.851,0.846-3.54,0.609-4.739,0h-0.202
			C28.619,56.438,29.312,56.578,30.049,56.31z M25.513,61.553c-0.447,0.313-0.437,0.37-1.109,0.303l-0.101-0.202
			c0.235-0.134,0.471-0.269,0.706-0.403h0.605C25.58,61.352,25.546,61.453,25.513,61.553z M25.714,59.739
			c-0.034-0.067-0.067-0.135-0.101-0.202c0.75-0.571,1.401-0.922,2.319-1.411c0.571,0.033,1.143,0.066,1.714,0.101v0.101
			c-1.277,0.471-2.555,0.941-3.831,1.412H25.714z M27.227,61.453c-0.235,0.201-0.47,0.403-0.706,0.605
			c0.134-0.823,0.424-1.187,0.807-1.715h0.202C27.428,60.713,27.328,61.083,27.227,61.453z M29.042,59.638h0.302
			c0.067,0.066,0.134,0.134,0.202,0.201c-0.168,0.369-0.336,0.739-0.504,1.109c-0.336,0.302-0.672,0.604-1.008,0.907
			C28.331,61.074,28.498,60.173,29.042,59.638z M29.243,62.763c-0.067-0.033-0.135-0.066-0.202-0.101
			c-0.034-0.101-0.067-0.201-0.101-0.303c0.639-1.143,1.277-2.285,1.916-3.428c0.269-0.102,0.538-0.202,0.807-0.303
			c0.101,0.101,0.202,0.201,0.302,0.303c-0.665,1.581-1.609,2.562-2.521,3.831H29.243z M30.554,62.965
			c0.615-1.21,2.134-4.424,3.226-5.042h0.302c-0.05,2.41-1.761,3.166-2.521,4.84C31.183,63.047,31.219,62.973,30.554,62.965z
			 M33.376,62.965c-0.168,0.033-0.336,0.067-0.504,0.101c-0.033-0.067-0.067-0.135-0.101-0.201c0.605-1.009,1.21-2.018,1.814-3.025
			c0.235-0.672,0.471-1.345,0.706-2.017c0.168-0.168,0.336-0.336,0.504-0.505c0.101,0.034,0.202,0.067,0.303,0.102H36.3
			C35.654,59.129,34.922,62.178,33.376,62.965z M35.191,63.066h-0.403c0.907-1.982,1.815-3.967,2.722-5.949
			c0.151-0.167,0.306-0.187,0.504-0.303h0.303C38.3,59.245,36.71,62.017,35.191,63.066z M37.106,62.562
			c0.807-2.051,1.613-4.102,2.42-6.151c0.538-0.135,1.075-0.269,1.613-0.403h0.302C40.333,58.802,39.797,61.375,37.106,62.562z
			 M59.588,62.965v0.101c-0.202-0.033-0.403-0.067-0.605-0.101c-0.134-0.269-0.269-0.538-0.403-0.807
			C59.085,62.379,59.321,62.508,59.588,62.965z M56.161,63.772H56.06c-0.101-0.235-0.202-0.471-0.303-0.706
			c0.303,0.135,0.605,0.27,0.908,0.403c0.033,0.067,0.067,0.135,0.101,0.202C56.564,63.705,56.362,63.739,56.161,63.772z
			 M56.463,62.058c0.269,0.066,0.538,0.134,0.807,0.201C56.885,62.412,56.711,62.303,56.463,62.058z M57.471,64.781
			c-0.101-0.102-0.202-0.202-0.302-0.303c0.202-0.101,0.403-0.202,0.605-0.303h0.504C58.009,64.377,57.74,64.579,57.471,64.781z
			 M59.185,65.486c-0.168-0.033-0.336-0.066-0.504-0.101c-0.067-0.033-0.134-0.067-0.202-0.101c0.403-0.269,0.807-0.538,1.21-0.807
			h0.201c0.067,0.101,0.135,0.201,0.202,0.303C59.79,65.016,59.488,65.251,59.185,65.486z M60.395,65.991V65.89
			c0.302-0.303,0.605-0.605,0.907-0.908h0.504C61.458,65.467,61.101,65.85,60.395,65.991z M62.008,63.772
			c-0.168-0.033-0.336-0.067-0.504-0.101c-0.591-0.276-0.778-0.786-1.008-1.412c0.762,0.319,1.147,0.707,1.512,1.412V63.772z
			 M64.024,65.789c-0.408,0.168-0.858,0.446-1.412,0.202h-0.202V65.89c0.168-0.135,0.336-0.27,0.504-0.404l1.109,0.202V65.789z
			 M64.125,64.579c-0.033,0.034-0.067,0.067-0.101,0.101c-0.99-0.415-1.801-1.682-2.017-2.823c0.957,0.619,1.434,1.428,2.117,2.319
			V64.579z M52.531,72.444c2.518,0.441,5.574-0.322,7.158,1.21c-0.034,0.101-0.067,0.202-0.101,0.303
			c-0.647,0.271-4.947-1.264-7.359-1.109c-0.034-0.067-0.067-0.135-0.101-0.201C52.263,72.579,52.397,72.511,52.531,72.444z
			 M50.011,74.158c0.874-0.168,1.748-0.336,2.622-0.504c2.402,0.005,3.706,0.578,5.343,1.109c0.033,0.067,0.067,0.135,0.101,0.202
			c-0.168,0.235-0.336,0.47-0.504,0.705c-2.355-0.535-4.186-1.368-7.562-1.311V74.158z M46.583,79.301
			c0.779-0.309,1.921-0.331,2.924-0.706c1.304-0.002,2.115,0.228,3.024,0.504V79.2c-0.235,0.235-0.47,0.471-0.706,0.706
			c-1.445-0.188-3.512-0.301-5.243-0.504V79.301z M47.692,77.789c0.569-0.609,1.211-0.476,2.117-0.807
			c2.066-0.001,3.312,0.371,4.738,0.807c-0.235,0.201-0.471,0.403-0.706,0.604C51.914,78.215,50.152,77.761,47.692,77.789z
			 M46.281,80.612c0.605-0.101,1.21-0.202,1.815-0.303c0.806,0.067,1.613,0.135,2.419,0.202c-0.101,0.235-0.202,0.471-0.303,0.706
			c-1.344-0.102-2.688-0.202-4.033-0.303C46.213,80.814,46.247,80.712,46.281,80.612z M45.272,84.242
			c-0.067-0.033-0.134-0.066-0.202-0.101c0.227-0.716,0.546-0.473,1.21-0.706C46.351,83.866,45.733,84.071,45.272,84.242z
			 M47.39,84.948h-0.302c-0.034-0.067-0.067-0.135-0.101-0.201c0.101-0.034,0.202-0.067,0.303-0.102h0.202
			C47.457,84.747,47.423,84.847,47.39,84.948z M48.096,82.628c-0.874-0.067-1.748-0.134-2.622-0.201
			c0.542-0.562,1.272-0.4,2.117-0.706c0.235,0.033,0.471,0.067,0.706,0.101h0.202c0.067,0.101,0.135,0.202,0.202,0.303
			C48.499,82.292,48.297,82.46,48.096,82.628z M48.902,85.048h-0.101c-0.399-0.505-0.312-1.091,0-1.613
			c0.101,0.034,0.202,0.067,0.302,0.102c0.101,0.033,0.202,0.066,0.303,0.101C49.238,84.108,49.07,84.579,48.902,85.048z
			 M50.414,85.452c-0.202,0.034-0.403,0.067-0.604,0.102c0.101-1.009,0.201-2.018,0.302-3.025c0.134-0.101,0.269-0.202,0.403-0.303
			h0.302C50.896,83.568,50.775,84.466,50.414,85.452z M51.422,85.25c0.121-1.505,0.183-3.59,1.008-4.437h0.403v0.101
			c-0.448,1.542-0.812,2.941-1.21,4.235C51.557,85.183,51.49,85.216,51.422,85.25z M53.237,85.15h-0.504
			c0.437-1.849,0.874-3.698,1.311-5.547c0.168-0.066,0.336-0.134,0.504-0.201h0.302C54.744,81.437,54.607,84.324,53.237,85.15z
			 M54.85,84.343c0.531-1.832,0.272-4.457,1.109-6.051h0.403C56.409,80.355,56.328,83.786,54.85,84.343z M56.463,76.276
			c-0.269,0.202-0.538,0.403-0.806,0.605c-0.085,0.026-5.745-0.736-6.957-0.808v-0.101c0.941-0.269,1.882-0.538,2.823-0.807
			c2.044,0.052,3.311,0.721,4.939,1.009V76.276z M56.866,83.133c-0.101,0.033-0.201,0.066-0.302,0.101
			c0.261-1.904,0.305-4.878,1.21-6.252C58.744,78.857,57.691,82.011,56.866,83.133z M59.084,80.915
			c-0.134,0.101-0.269,0.201-0.403,0.303c0.447-1.767-0.238-4.286,0.605-5.547h0.302C60.303,77.025,59.59,79.802,59.084,80.915z
			 M60.899,76.175h-0.101l-0.605-1.412c0.336-0.135,0.672-0.269,1.008-0.403C61.101,74.965,61,75.57,60.899,76.175z M61,72.847
			c-0.839,0.266-3.288-0.751-4.033-1.21c1.545,0.135,3.092,0.27,4.637,0.403c0.067,0.101,0.135,0.202,0.202,0.303
			C61.538,72.511,61.269,72.679,61,72.847z M76.727,76.78h0.102c-0.034,0.168-0.067,0.337-0.102,0.505h-0.101
			c-0.067-0.067-0.134-0.135-0.201-0.202C76.525,76.982,76.626,76.881,76.727,76.78z M76.425,78.393
			c0.067,0.235,0.134,0.471,0.201,0.706c-0.672,0.37-1.344,0.739-2.016,1.109C75.14,79.429,75.651,78.937,76.425,78.393z
			 M75.819,80.511h0.403c0.034,0.067,0.067,0.134,0.102,0.201v0.102c-0.673,0.403-1.345,0.807-2.017,1.21
			c-0.034-0.102-0.067-0.202-0.101-0.303C74.642,81.147,75.242,80.942,75.819,80.511z M74.61,86.057
			c-0.202,0.168-0.403,0.336-0.605,0.504c-0.033-0.067-0.067-0.134-0.101-0.201c0.101-0.403,0.201-0.807,0.303-1.21
			c0.234-0.168,0.471-0.337,0.705-0.505C75.042,85.069,74.759,85.605,74.61,86.057z M75.315,87.973h-0.101
			c-0.067-0.067-0.135-0.135-0.201-0.202c0.066-0.201,0.134-0.403,0.201-0.604h0.303C75.45,87.435,75.383,87.705,75.315,87.973z
			 M74.812,83.637c-0.135-0.034-0.269-0.067-0.403-0.101h-0.201c0.47-0.438,0.94-0.874,1.411-1.312
			c0.211,0.208,0.19,0.262,0.201,0.706L74.812,83.637z M76.425,86.662c-0.101-0.168-0.202-0.336-0.303-0.504
			c0.067-0.135,0.135-0.269,0.202-0.403c0.101,0.269,0.201,0.538,0.302,0.807C76.559,86.595,76.492,86.628,76.425,86.662z
			 M77.735,85.754h-0.303c-0.269-0.437-0.537-0.874-0.807-1.311c0.086-0.503,0.056-0.342,0.303-0.605
			c0.303,0.571,0.604,1.144,0.907,1.715C77.803,85.62,77.769,85.687,77.735,85.754z M79.752,80.41
			c0.033,0.303,0.066,0.605,0.101,0.908c-0.745-0.546-1.558-1.401-1.916-2.319C78.677,79.366,79.282,79.776,79.752,80.41z
			 M78.844,78.393c-0.493-0.337-0.812-0.666-1.008-1.311C78.367,77.411,78.711,77.645,78.844,78.393z M79.953,82.628v0.505
			c-0.101,0.066-0.201,0.134-0.303,0.201c-0.859-0.627-1.495-1.668-1.814-2.823C78.542,81.217,79.248,81.922,79.953,82.628z
			 M78.844,84.343c0.075,0.25,0.036,0.353-0.101,0.604v0.202c-0.759-0.719-1.626-2.107-1.613-3.529
			C77.802,82.305,78.626,83.248,78.844,84.343z"/>
	</g>
</g>
</svg>
