<?xml version="1.0" encoding="iso-8859-1"?>
<!-- Generator: Adobe Illustrator 19.0.0, SVG Export Plug-In . SVG Version: 6.00 Build 0)  -->
<svg version="1.1" id="Layer_1" xmlns="http://www.w3.org/2000/svg" xmlns:xlink="http://www.w3.org/1999/xlink" x="0px" y="0px"
	 viewBox="0 0 512 512" style="enable-background:new 0 0 512 512;" xml:space="preserve">
<g>
	<rect x="10.5" y="361.99" style="fill:#F5F7FA;" width="360.5" height="78.5"/>
	<path style="fill:#F5F7FA;" d="M500,327.494c0,15.742-12.75,28.5-28.5,28.5s-28.5-12.758-28.5-28.5s12.75-28.5,28.5-28.5
		S500,311.752,500,327.494z"/>
</g>
<polygon style="fill:#ED5564;" points="446,168.994 357,92.994 249,72.994 164,89.994 94,130.994 30,211.994 30,341.354 35,361.994 
	350,361.994 344,270.994 381,271.994 427,305.994 446,299.994 474,275.994 "/>
<path d="M486,287.697c-3.906-49.086-16.484-91.695-37.594-127.008c-11.922-19.961-26.562-37.492-43.547-52.117
	c-16.094-13.859-34.328-25.164-54.203-33.594c-22.016-9.344-45.844-15.117-70.812-17.148c-24.047-1.969-48.594-0.438-72.984,4.547
	c-48.875,9.992-94.516,33.648-128.5,66.625c-30.438,29.539-51.141,66.133-59.875,105.828c-7.922,36.023-6.266,74.094,4.922,113.5
	H23.25C10.406,348.33,0,358.736,0,371.572v60.188c0,12.836,10.406,23.242,23.25,23.242h337.531
	c12.828,0,23.234-10.406,23.234-23.242v-60.188c0-12.836-10.406-23.242-23.234-23.242h-0.688
	c9.828-30.508,4.156-54.844-1.281-68.539c29.188,5.461,52.547,25.156,68.234,41.609c-0.234,1.828-0.375,3.695-0.375,5.586
	c0,23.57,19.109,42.672,42.672,42.672S512,350.557,512,326.986C512,309.33,501.281,294.189,486,287.697z M362.688,371.572v60.188
	c0,1.055-0.859,1.906-1.906,1.906h-30.094v-10.664c0-5.891-4.781-10.664-10.672-10.664s-10.672,4.773-10.672,10.664v10.664h-64
	v-10.664c0-5.891-4.781-10.664-10.656-10.664c-5.906,0-10.672,4.773-10.672,10.664v10.664H160v-10.664
	c0-5.891-4.766-10.664-10.656-10.664s-10.656,4.773-10.656,10.664v10.664h-64v-10.664c0-5.891-4.781-10.664-10.688-10.664
	c-5.875,0-10.656,4.773-10.656,10.664v10.664H23.25c-1.062,0-1.906-0.852-1.906-1.906v-60.188c0-1.047,0.844-1.906,1.906-1.906
	h337.531C361.828,369.666,362.688,370.525,362.688,371.572z M305.766,263.619v0.008c-4.125,1.469-7.078,5.406-7.078,10.039
	c0,5.891,4.766,10.664,10.656,10.664c1.25,0,2.469-0.227,3.594-0.625v0.008c8.203-2.93,16.125-4.555,23.75-5.133l-1.625,1.109
	c0.125,0.18,7.406,11.141,8.812,29.344v12.078c-0.609,8.156-2.516,17.305-6.469,27.219H45.641
	c-11.719-38.086-13.859-74.648-6.328-108.922c7.844-35.594,26.469-68.477,53.906-95.094c31.094-30.18,72.969-51.852,117.906-61.031
	c45.484-9.297,92.078-5.266,131.203,11.336c70.734,30.016,113.25,96.797,121.969,190.008c-11.391,1.344-21.391,7.156-28.219,15.648
	C408.812,273.869,363.359,243.08,305.766,263.619z M469.344,348.322c-11.766,0-21.344-9.57-21.344-21.336
	c0-11.758,9.578-21.328,21.344-21.328c11.75,0,21.328,9.57,21.328,21.328C490.672,338.752,481.094,348.322,469.344,348.322z"/>
<g>
</g>
<g>
</g>
<g>
</g>
<g>
</g>
<g>
</g>
<g>
</g>
<g>
</g>
<g>
</g>
<g>
</g>
<g>
</g>
<g>
</g>
<g>
</g>
<g>
</g>
<g>
</g>
<g>
</g>
</svg>
